# xmcd CD database file
#
# Track frame offsets:
#	150
#	39274
#	81726
#	115402
#	144032
#	175901
#	236118
#	279727
#	300708
#
# Disc length: 4199 seconds
#
# Revision: 0
# Processed by: cddbd v1.5.2PL0 Copyright (c) Steve Scherf et al.
# Submitted via: CDex 1.70beta2
#
DISCID=7b106509
DTITLE=sting and gil evans - strange fruit
DYEAR=1997
DGENRE=Jazz
TTITLE0=tea in the sahara
TTITLE1=exp
TTITLE2=sureal
TTITLE3=consider me gone
TTITLE4=strange fruit
TTITLE5=all over
TTITLE6=little wing
TTITLE7=three comes a time
TTITLE8=tribute to M
EXTD=YEAR: 1997
EXTT0=
EXTT1=
EXTT2=
EXTT3=
EXTT4=
EXTT5=
EXTT6=
EXTT7=
EXTT8=
PLAYORDER=
